<?xml version="1.0" encoding="utf-8" ?><svg xmlns="http://www.w3.org/2000/svg" xmlns:xlink="http://www.w3.org/1999/xlink" width="800" height="608" viewBox="0 0 800 608"><path fill="#FD0000" d="M0 0L593.169 0C599.492 0.864296 609.017 3.3396 615.469 4.92996C670.753 18.5565 717.736 48.0417 752.569 93.3186C775.991 123.764 788.825 155.239 796.816 192.63C797.713 196.83 798.384 200.508 798.803 204.786C799.177 208.612 799.108 213.337 800 216.949L800 258.458L799.918 258.865C799.094 263.063 799.102 267.746 798.405 271.912C797.132 279.511 795.511 287.301 793.573 294.746C779.295 351.338 744.702 400.698 696.386 433.421C640.039 471.929 585.621 475.945 519.711 473.992C496.414 473.302 472.288 474.703 448.906 473.919C435.525 498.886 420.376 523.57 406.358 548.239L386.353 583.058C382.271 590.261 376.33 601.41 371.853 608L134.901 608C135.405 604.863 147.831 584.121 150.09 580.175L195.462 501.748L407.658 134.054C418.412 133.744 430.333 133.986 441.156 133.984L504.393 133.985C519.225 133.944 534.058 133.987 548.89 134.114C559.815 134.248 571.832 134.377 582.624 135.899C591.851 137.2 602.347 140.931 610.64 145.167C619.443 149.666 625.882 155.641 633.116 162.004C646.766 174.011 657.45 190.961 662.43 208.607C669.286 232.904 666.673 262.44 654.23 284.754C643.404 304.169 629.909 317.163 610.408 327.843C604.524 331.066 596.736 334.772 590.437 336.479C585.049 337.939 569.634 339.293 565.275 339.335C552.927 339.457 451.983 341.117 446.375 338.039C447.048 333.373 480.026 278.603 484.199 270.82C484.518 270.225 485.751 268.628 486.514 268.509C491.12 267.791 497.485 268.11 502.208 268.115L548.033 268.181C552.038 268.187 566.101 268.742 569.437 267.774C589.716 261.89 601.27 241.093 590.386 221.583C586.539 214.687 580.708 210.208 574.043 206.22L489.417 205.647L464.153 205.598C460.047 205.592 452.79 205.772 449.033 205.2C440.921 220.707 429.731 239.001 420.863 254.159L380.922 323.072L258.121 536.291C263.404 536.646 271.773 536.507 277.1 536.493L310.818 536.256C315.704 536.221 326.51 535.873 330.874 536.489C348.182 505.537 366.668 473.724 384.553 443.132C389.096 435.43 393.557 427.68 397.936 419.883C400.87 414.68 404.751 407.457 408.112 402.704C411.924 402.321 417.882 402.491 421.893 402.491L445.501 402.477L527.955 402.414C546.174 402.414 570.439 402.853 588.265 400.585C622.907 396.178 655.687 377.957 680.354 353.625C711.384 322.722 728.923 280.787 729.138 236.987C728.985 192.727 711.266 150.339 679.878 119.144C657.384 96.7188 628.921 81.2325 597.878 74.5292C583.954 71.6252 574.35 71.8981 560.145 71.7759L535.28 71.5375L457.107 71.5214L147.121 71.8934C154.875 80.7169 163.452 92.0106 170.882 101.293L221.975 165.372C218.297 173.633 213.633 181.606 209.171 189.476C202.539 201.153 195.821 212.782 189.016 224.359C181.163 237.872 172.478 254.751 164.08 267.623C187.928 267.571 211.775 267.698 235.621 268.004L264.958 268.221C270.688 268.288 283.436 267.891 288.156 270.089C283.864 278.738 277.619 289.018 272.706 297.493C264.895 310.97 256.717 326.409 248.394 339.423C244.119 340.075 233.547 339.775 228.648 339.763L192.704 339.718L96.6871 339.706C78.5247 339.556 59.1532 338.702 41.0714 338.797C49.4599 322.359 60.8759 303.676 70.2245 287.541L108.777 220.782C118.04 205.021 127.115 189.15 136 173.173C128.312 162.34 117.95 149.934 109.611 139.332L37.1933 48.9061C25.5281 34.3304 10.698 16.4748 0 1.52869L0 0Z"/></svg>